# Blender v2.79 (sub 0) OBJ File: 'nav_hex_splitter.blend'
# www.blender.org
mtllib nav_hex_splitter.mtl
o co_culling
v -1600.000000 -25.000000 -12800.000000
v -1600.000000 -25.000000 12800.000000
v -1600.000000 25.000000 -12800.000000
v -1600.000000 25.000000 12800.000000
v 1600.000000 -25.000000 -12800.000000
v 1600.000000 -25.000000 12800.000000
v 1600.000000 25.000000 -12800.000000
v 1600.000000 25.000000 12800.000000
vt 0.625000 0.000000
vt 0.375000 0.250000
vt 0.375000 0.000000
vt 0.625000 0.250000
vt 0.375000 0.500000
vt 0.625000 0.500000
vt 0.375000 0.750000
vt 0.625000 0.750000
vt 0.375000 1.000000
vt 0.125000 0.750000
vt 0.125000 0.500000
vt 0.875000 0.500000
vt 0.625000 1.000000
vt 0.875000 0.750000
vn -1.0000 0.0000 0.0000
vn 0.0000 1.0000 0.0000
vn 1.0000 0.0000 0.0000
vn 0.0000 -1.0000 0.0000
vn 0.0000 0.0000 -1.0000
vn 0.0000 0.0000 1.0000
usemtl None
s off
f 2/1/1 3/2/1 1/3/1
f 4/4/2 7/5/2 3/2/2
f 8/6/3 5/7/3 7/5/3
f 6/8/4 1/9/4 5/7/4
f 7/5/5 1/10/5 3/11/5
f 4/12/6 6/8/6 8/6/6
f 2/1/1 4/4/1 3/2/1
f 4/4/2 8/6/2 7/5/2
f 8/6/3 6/8/3 5/7/3
f 6/8/4 2/13/4 1/9/4
f 7/5/5 5/7/5 1/10/5
f 4/12/6 2/14/6 6/8/6
o g_blocker_02
v -25.000000 -25.000000 -12800.000000
v -25.000000 -25.000000 12800.000000
v -25.000000 25.000000 -12800.000000
v -25.000000 25.000000 12800.000000
v 25.000000 -25.000000 -12800.000000
v 25.000000 -25.000000 12800.000000
v 25.000000 25.000000 -12800.000000
v 25.000000 25.000000 12800.000000
vt 0.062500 0.406250
vt 0.062500 0.406250
vt 0.062500 0.406250
vt 0.062500 0.406250
vt 0.062500 0.406250
vt 0.062500 0.406250
vt 0.062500 0.406250
vt 0.062500 0.406250
vn -1.0000 0.0000 0.0000
vn 0.0000 1.0000 0.0000
vn 1.0000 0.0000 0.0000
vn 0.0000 -1.0000 0.0000
vn 0.0000 0.0000 -1.0000
vn 0.0000 0.0000 1.0000
usemtl mtr_hub_elements
s off
f 10/15/7 11/16/7 9/17/7
f 12/18/8 15/19/8 11/16/8
f 16/20/9 13/21/9 15/19/9
f 14/22/10 9/17/10 13/21/10
f 15/19/11 9/17/11 11/16/11
f 12/18/12 14/22/12 16/20/12
f 10/15/7 12/18/7 11/16/7
f 12/18/8 16/20/8 15/19/8
f 16/20/9 14/22/9 13/21/9
f 14/22/10 10/15/10 9/17/10
f 15/19/11 13/21/11 9/17/11
f 12/18/12 10/15/12 14/22/12
o g_blocker_01
v -25.000000 -25.000000 -12800.000000
v -25.000000 -25.000000 12800.000000
v -25.000000 25.000000 -12800.000000
v -25.000000 25.000000 12800.000000
v 25.000000 -25.000000 -12800.000000
v 25.000000 -25.000000 12800.000000
v 25.000000 25.000000 -12800.000000
v 25.000000 25.000000 12800.000000
vt 0.062500 0.406250
vt 0.062500 0.406250
vt 0.062500 0.406250
vt 0.062500 0.406250
vt 0.062500 0.406250
vt 0.062500 0.406250
vt 0.062500 0.406250
vt 0.062500 0.406250
vn -1.0000 0.0000 0.0000
vn 0.0000 1.0000 0.0000
vn 1.0000 0.0000 0.0000
vn 0.0000 -1.0000 0.0000
vn 0.0000 0.0000 -1.0000
vn 0.0000 0.0000 1.0000
usemtl mtr_hub_elements
s off
f 18/23/13 19/24/13 17/25/13
f 20/26/14 23/27/14 19/24/14
f 24/28/15 21/29/15 23/27/15
f 22/30/16 17/25/16 21/29/16
f 23/27/17 17/25/17 19/24/17
f 20/26/18 22/30/18 24/28/18
f 18/23/13 20/26/13 19/24/13
f 20/26/14 24/28/14 23/27/14
f 24/28/15 22/30/15 21/29/15
f 22/30/16 18/23/16 17/25/16
f 23/27/17 21/29/17 17/25/17
f 20/26/18 18/23/18 22/30/18
o g_splitter
v -1600.000000 -5.000001 -12800.000000
v -1600.000000 -5.000001 12800.000000
v -1600.000000 5.000001 -12800.000000
v -1600.000000 5.000001 12800.000000
v 1600.000000 -5.000001 -12800.000000
v 1600.000000 -5.000001 12800.000000
v 1600.000000 5.000001 -12800.000000
v 1600.000000 5.000001 12800.000000
vt 0.781250 0.234375
vt 0.781250 0.234375
vt 0.781250 0.234375
vt 0.781250 0.234375
vt 0.781250 0.234375
vt 0.781250 0.234375
vt 0.781250 0.234375
vt 0.781250 0.234375
vn -1.0000 0.0000 0.0000
vn 0.0000 1.0000 0.0000
vn 1.0000 0.0000 0.0000
vn 0.0000 -1.0000 0.0000
vn 0.0000 0.0000 -1.0000
vn 0.0000 0.0000 1.0000
usemtl mtr_hub_elements
s off
f 26/31/19 27/32/19 25/33/19
f 28/34/20 31/35/20 27/32/20
f 32/36/21 29/37/21 31/35/21
f 30/38/22 25/33/22 29/37/22
f 31/35/23 25/33/23 27/32/23
f 28/34/24 30/38/24 32/36/24
f 26/31/19 28/34/19 27/32/19
f 28/34/20 32/36/20 31/35/20
f 32/36/21 30/38/21 29/37/21
f 30/38/22 26/31/22 25/33/22
f 31/35/23 29/37/23 25/33/23
f 28/34/24 26/31/24 30/38/24
