# Blender v2.79 (sub 0) OBJ File: 'wz_vegetation_bush_small.blend'
# www.blender.org
mtllib wz_vegetation_bush_small.mtl
o g_bush_lod1
v -9.969452 55.634968 62.217682
v -0.001847 0.106132 -2.699996
v -0.669442 38.472073 26.120880
v -0.795954 45.742268 112.597404
v 0.401334 -23.064985 112.857117
v -8.290073 -40.877754 95.457932
v 9.734317 -42.122494 57.543289
v -42.385994 -0.737543 60.942589
v -18.156799 -0.315932 117.202545
v -0.522686 -0.009095 -4.435431
v 30.931578 -3.618514 31.541201
v 43.256958 4.909457 67.997551
v 39.324837 -3.472457 85.746040
v 18.868845 0.328342 114.527359
v -2.101617 0.152374 21.459007
v -2.512391 -0.456554 38.720051
v -34.311409 -31.501684 66.815147
v -12.678877 -15.527220 19.806358
v 0.641120 3.572046 14.450685
v 19.649035 15.512202 75.559959
v 46.915794 45.379456 76.770554
v 28.630844 45.687424 37.278263
v 29.535357 55.163025 49.774147
v 0.038264 0.111108 -2.159997
v 13.870531 40.275841 20.896704
v 16.491697 47.886894 90.077927
v -8.315722 -24.146397 90.285690
v -5.260853 -45.874718 76.366356
v -24.663622 -41.017017 46.034630
v 44.373276 -15.281634 48.754074
v 19.008087 -6.546152 93.762039
v 0.547192 -0.188447 -3.548344
v -33.804302 6.775530 25.232962
v -43.862568 19.972048 54.398041
v -42.591084 9.801604 68.596840
v -19.753510 6.802892 91.621895
v 2.264810 -0.558779 17.167206
v 2.488906 -1.340456 30.976040
v 25.344082 -44.908108 53.452118
v 8.035184 -20.686577 15.845087
v 0.547411 3.980193 11.560548
v -15.378782 23.056055 60.447968
v -33.865295 63.832592 61.416447
v -14.508778 57.899441 29.822613
v 0.000004 0.000000 -41.286278
v -0.023943 1.376001 0.000001
v 1.179680 0.708736 0.000001
v 1.203624 -0.667265 0.000001
v 0.023943 -1.376001 0.000001
v -1.179680 -0.708736 0.000001
v -1.203624 0.667265 0.000001
v 0.000004 0.000000 9.633465
vt 0.561842 0.641984
vt 0.455081 0.334685
vt 1.000000 0.360654
vt 0.463737 0.545322
vt 0.944162 0.640541
vt 0.384388 0.040370
vt 0.381502 0.186085
vt 0.100172 0.125491
vt 0.903766 0.160116
vt 0.711286 0.942338
vt 0.640236 0.676300
vt 0.981935 0.794838
vt 0.440654 0.484727
vt 0.515675 0.704021
vt 0.000000 0.711583
vt 0.690590 0.000000
vt 0.452195 0.121163
vt 0.496993 0.842150
vt 0.145766 1.000000
vt 0.368518 0.983908
vt 0.251855 0.268320
vt 0.491149 0.810782
vt 0.561842 0.641984
vt 0.455081 0.334685
vt 1.000000 0.360654
vt 0.463737 0.545322
vt 0.944162 0.640541
vt 0.384388 0.040370
vt 0.381502 0.186085
vt 0.100172 0.125491
vt 0.903766 0.160116
vt 0.711286 0.942338
vt 0.640236 0.676300
vt 0.981935 0.794838
vt 0.440654 0.484727
vt 0.515675 0.704021
vt 0.000000 0.711583
vt 0.690590 0.000000
vt 0.452195 0.121163
vt 0.496993 0.842150
vt 0.145766 1.000000
vt 0.368518 0.983908
vt 0.251855 0.268320
vt 0.491149 0.810782
vt 0.252515 0.272450
vt 0.259012 0.337579
vt 0.257883 0.337715
vt 0.255625 0.337985
vt 0.254496 0.338120
vt 0.255625 0.337985
vt 0.257883 0.337715
vt 0.257743 0.353110
vn 0.9764 0.1921 0.0986
vn 0.6703 -0.6595 0.3403
vn 0.9843 0.0165 -0.1760
vn 0.7460 -0.6549 0.1208
vn 0.9690 0.1876 0.1604
vn 0.8610 -0.4777 -0.1745
vn 0.0469 -0.9760 0.2125
vn 0.9912 0.0901 -0.0970
vn 0.8290 -0.5592 -0.0000
vn 0.7036 -0.6289 -0.3307
vn 0.0174 -0.9998 0.0000
vn -0.0587 -0.9971 -0.0487
vn 0.0935 -0.9081 -0.4082
vn -0.0602 -0.9943 0.0885
vn 0.8654 -0.4824 -0.1358
vn 0.8000 0.3993 -0.4478
vn 0.9180 -0.3155 0.2402
vn 0.9059 0.3896 -0.1660
vn 0.8536 -0.4725 -0.2195
vn 0.9533 0.1855 0.2382
vn 0.3393 0.8954 -0.2881
vn 0.9109 -0.3904 0.1337
vn 0.9613 0.2756 0.0000
vn 0.8234 0.3629 0.4363
vn 0.3256 0.9455 -0.0000
vn 0.2521 0.9654 0.0673
vn 0.3443 0.7776 0.5261
vn 0.2492 0.9607 -0.1221
vn 0.0000 0.0000 -1.0000
vn -0.0174 0.9984 0.0528
vn 0.8560 0.5143 0.0528
vn 0.8733 -0.4842 0.0528
vn 0.0174 -0.9984 0.0528
vn -0.8560 -0.5143 0.0528
vn -0.8733 0.4842 0.0528
vn 0.0000 0.0000 1.0000
usemtl mtl_bush_lod
s off
f 5/1/1 7/2/1 1/3/1
f 6/4/2 7/2/2 5/1/2
f 4/5/3 5/1/3 1/3/3
f 18/6/4 16/7/4 17/8/4
f 3/9/5 1/3/5 7/2/5
f 22/10/6 20/11/6 19/12/6
f 11/13/7 12/14/7 8/15/7
f 2/16/8 3/9/8 7/2/8
f 18/6/9 15/17/9 16/7/9
f 22/10/10 21/18/10 20/11/10
f 9/19/11 8/15/11 14/20/11
f 10/21/12 11/13/12 8/15/12
f 12/14/13 13/22/13 8/15/13
f 14/20/14 8/15/14 13/22/14
f 27/23/15 29/24/15 23/25/15
f 28/26/16 29/24/16 27/23/16
f 26/27/17 27/23/17 23/25/17
f 40/28/18 38/29/18 39/30/18
f 25/31/19 23/25/19 29/24/19
f 44/32/20 42/33/20 41/34/20
f 33/35/21 34/36/21 30/37/21
f 24/38/22 25/31/22 29/24/22
f 40/28/23 37/39/23 38/29/23
f 44/32/24 43/40/24 42/33/24
f 31/41/25 30/37/25 36/42/25
f 32/43/26 33/35/26 30/37/26
f 34/36/27 35/44/27 30/37/27
f 36/42/28 30/37/28 35/44/28
s 1
f 45/45/29 46/46/30 47/47/31
f 45/45/29 47/47/31 48/48/32
f 45/45/29 48/48/32 49/49/33
f 45/45/29 49/49/33 50/50/34
f 45/45/29 50/50/34 51/51/35
f 45/45/29 51/51/35 46/46/30
f 48/48/32 47/47/31 52/52/36
f 51/51/35 50/50/34 52/52/36
f 47/47/31 46/46/30 52/52/36
f 49/49/33 48/48/32 52/52/36
f 46/46/30 51/51/35 52/52/36
f 50/50/34 49/49/33 52/52/36
o g_none
v 0.000000 0.000000 0.000000
v 0.000000 0.000000 0.000000
v 0.000000 0.000000 0.000000
vn 0.0000 0.0000 1.0000
usemtl None
s off
f 53//37 55//37 54//37
o c_visblocker
v -45.000000 -45.000000 -10.000000
v -45.000000 -45.000000 120.000008
v -45.000000 45.000000 -10.000000
v -45.000000 45.000000 120.000008
v 45.000000 -45.000000 -10.000000
v 45.000000 -45.000000 120.000008
v 45.000000 45.000000 -10.000000
v 45.000000 45.000000 120.000008
vn -1.0000 0.0000 0.0000
vn 0.0000 1.0000 0.0000
vn 1.0000 0.0000 0.0000
vn 0.0000 -1.0000 0.0000
vn 0.0000 0.0000 -1.0000
vn 0.0000 0.0000 1.0000
usemtl None
s off
f 57//38 58//38 56//38
f 59//39 62//39 58//39
f 63//40 60//40 62//40
f 61//41 56//41 60//41
f 62//42 56//42 58//42
f 59//43 61//43 63//43
f 57//38 59//38 58//38
f 59//39 63//39 62//39
f 63//40 61//40 60//40
f 61//41 57//41 56//41
f 62//42 60//42 56//42
f 59//43 57//43 61//43
o co_culling
v 0.000000 0.000000 0.000000
v 0.000000 0.000000 0.000000
v 0.000000 0.000000 0.000000
v 0.000000 0.000000 0.000000
v 0.000000 0.000000 0.000000
v 0.000000 0.000000 0.000000
v 0.000000 0.000000 0.000000
v 0.000000 0.000000 0.000000
vn 0.0000 0.0000 1.0000
usemtl None
s off
f 64//44 67//44 66//44
f 66//44 71//44 70//44
f 70//44 69//44 68//44
f 68//44 65//44 64//44
f 66//44 68//44 64//44
f 71//44 65//44 69//44
f 64//44 65//44 67//44
f 66//44 67//44 71//44
f 70//44 71//44 69//44
f 68//44 69//44 65//44
f 66//44 70//44 68//44
f 71//44 67//44 65//44
o g_bush_lod0
v -9.969452 55.634968 62.217682
v -0.001847 0.106132 -2.699996
v -0.669442 38.472073 26.120880
v -0.795954 45.742268 112.597404
v 0.401334 -23.064985 112.857117
v -8.290073 -40.877754 95.457932
v 9.734317 -42.122494 57.543289
v -42.385994 -0.737543 60.942589
v -18.156799 -0.315932 117.202545
v -0.522686 -0.009095 -4.435431
v 30.931578 -3.618514 31.541201
v 43.256958 4.909457 67.997551
v 39.324837 -3.472457 85.746040
v 18.868845 0.328342 114.527359
v -2.101617 0.152374 21.459007
v -2.512391 -0.456554 38.720051
v -34.311409 -31.501684 66.815147
v -12.678877 -15.527220 19.806358
v 0.641120 3.572046 14.450685
v 19.649035 15.512202 75.559959
v 46.915794 45.379456 76.770554
v 28.630844 45.687424 37.278263
v 29.535357 55.163025 49.774147
v 0.038264 0.111108 -2.159997
v 13.870531 40.275841 20.896704
v 16.491697 47.886894 90.077927
v -8.315722 -24.146397 90.285690
v -5.260853 -45.874718 76.366356
v -24.663622 -41.017017 46.034630
v 44.373276 -15.281634 48.754074
v 19.008087 -6.546152 93.762039
v 0.547192 -0.188447 -3.548344
v -33.804302 6.775530 25.232962
v -43.862568 19.972048 54.398041
v -42.591084 9.801604 68.596840
v -19.753510 6.802892 91.621895
v 2.264810 -0.558779 17.167206
v 2.488906 -1.340456 30.976040
v 25.344082 -44.908108 53.452118
v 8.035184 -20.686577 15.845087
v 0.547411 3.980193 11.560548
v -15.378782 23.056055 60.447968
v -33.865295 63.832592 61.416447
v -14.508778 57.899441 29.822613
v 0.000004 0.000000 -41.286278
v -0.023943 1.376001 0.000001
v 1.179680 0.708736 0.000001
v 1.203624 -0.667265 0.000001
v 0.023943 -1.376001 0.000001
v -1.179680 -0.708736 0.000001
v -1.203624 0.667265 0.000001
v 0.000004 0.000000 9.633465
vt 0.561842 0.641984
vt 0.455081 0.334685
vt 1.000000 0.360654
vt 0.463737 0.545322
vt 0.944162 0.640541
vt 0.384388 0.040370
vt 0.381502 0.186085
vt 0.100172 0.125491
vt 0.903766 0.160116
vt 0.711286 0.942338
vt 0.640236 0.676300
vt 0.981935 0.794838
vt 0.440654 0.484727
vt 0.515675 0.704021
vt 0.000000 0.711583
vt 0.690590 0.000000
vt 0.452195 0.121163
vt 0.496993 0.842150
vt 0.145766 1.000000
vt 0.368518 0.983908
vt 0.251855 0.268320
vt 0.491149 0.810782
vt 0.561842 0.641984
vt 0.455081 0.334685
vt 1.000000 0.360654
vt 0.463737 0.545322
vt 0.944162 0.640541
vt 0.384388 0.040370
vt 0.381502 0.186085
vt 0.100172 0.125491
vt 0.903766 0.160116
vt 0.711286 0.942338
vt 0.640236 0.676300
vt 0.981935 0.794838
vt 0.440654 0.484727
vt 0.515675 0.704021
vt 0.000000 0.711583
vt 0.690590 0.000000
vt 0.452195 0.121163
vt 0.496993 0.842150
vt 0.145766 1.000000
vt 0.368518 0.983908
vt 0.251855 0.268320
vt 0.491149 0.810782
vt 0.252515 0.272450
vt 0.259012 0.337579
vt 0.257883 0.337715
vt 0.255625 0.337985
vt 0.254496 0.338120
vt 0.255625 0.337985
vt 0.257883 0.337715
vt 0.257743 0.353110
vn 0.9764 0.1921 0.0986
vn 0.6703 -0.6595 0.3403
vn 0.9843 0.0165 -0.1760
vn 0.7460 -0.6549 0.1208
vn 0.9690 0.1876 0.1604
vn 0.8610 -0.4777 -0.1745
vn 0.0469 -0.9760 0.2125
vn 0.9912 0.0901 -0.0970
vn 0.8290 -0.5592 -0.0000
vn 0.7036 -0.6289 -0.3307
vn 0.0174 -0.9998 0.0000
vn -0.0587 -0.9971 -0.0487
vn 0.0935 -0.9081 -0.4082
vn -0.0602 -0.9943 0.0885
vn 0.8654 -0.4824 -0.1358
vn 0.8000 0.3993 -0.4478
vn 0.9180 -0.3155 0.2402
vn 0.9059 0.3896 -0.1660
vn 0.8536 -0.4725 -0.2195
vn 0.9533 0.1855 0.2382
vn 0.3393 0.8954 -0.2881
vn 0.9109 -0.3904 0.1337
vn 0.9613 0.2756 0.0000
vn 0.8234 0.3629 0.4363
vn 0.3256 0.9455 -0.0000
vn 0.2521 0.9654 0.0673
vn 0.3443 0.7776 0.5261
vn 0.2492 0.9607 -0.1221
vn 0.0000 0.0000 -1.0000
vn -0.0174 0.9984 0.0528
vn 0.8560 0.5143 0.0528
vn 0.8733 -0.4842 0.0528
vn 0.0174 -0.9984 0.0528
vn -0.8560 -0.5143 0.0528
vn -0.8733 0.4842 0.0528
vn 0.0000 0.0000 1.0000
usemtl mtl_bush
s off
f 76/53/45 78/54/45 72/55/45
f 77/56/46 78/54/46 76/53/46
f 75/57/47 76/53/47 72/55/47
f 89/58/48 87/59/48 88/60/48
f 74/61/49 72/55/49 78/54/49
f 93/62/50 91/63/50 90/64/50
f 82/65/51 83/66/51 79/67/51
f 73/68/52 74/61/52 78/54/52
f 89/58/53 86/69/53 87/59/53
f 93/62/54 92/70/54 91/63/54
f 80/71/55 79/67/55 85/72/55
f 81/73/56 82/65/56 79/67/56
f 83/66/57 84/74/57 79/67/57
f 85/72/58 79/67/58 84/74/58
f 98/75/59 100/76/59 94/77/59
f 99/78/60 100/76/60 98/75/60
f 97/79/61 98/75/61 94/77/61
f 111/80/62 109/81/62 110/82/62
f 96/83/63 94/77/63 100/76/63
f 115/84/64 113/85/64 112/86/64
f 104/87/65 105/88/65 101/89/65
f 95/90/66 96/83/66 100/76/66
f 111/80/67 108/91/67 109/81/67
f 115/84/68 114/92/68 113/85/68
f 102/93/69 101/89/69 107/94/69
f 103/95/70 104/87/70 101/89/70
f 105/88/71 106/96/71 101/89/71
f 107/94/72 101/89/72 106/96/72
s 1
f 116/97/73 117/98/74 118/99/75
f 116/97/73 118/99/75 119/100/76
f 116/97/73 119/100/76 120/101/77
f 116/97/73 120/101/77 121/102/78
f 116/97/73 121/102/78 122/103/79
f 116/97/73 122/103/79 117/98/74
f 119/100/76 118/99/75 123/104/80
f 122/103/79 121/102/78 123/104/80
f 118/99/75 117/98/74 123/104/80
f 120/101/77 119/100/76 123/104/80
f 117/98/74 122/103/79 123/104/80
f 121/102/78 120/101/77 123/104/80
