# Blender v2.79 (sub 0) OBJ File: 'wz_bld_construction001.blend'
# www.blender.org
mtllib wz_bld_construction001.mtl
o co_culling
v 0.000000 0.000000 0.000000
v 0.000000 0.000000 0.000000
v 0.000000 0.000000 0.000000
v 0.000000 0.000000 0.000000
v 0.000000 0.000000 0.000000
v 0.000000 0.000000 0.000000
v 0.000000 0.000000 0.000000
v 0.000000 0.000000 0.000000
vn 0.0000 0.0000 1.0000
usemtl None
s off
f 1//1 4//1 3//1
f 3//1 8//1 7//1
f 7//1 6//1 5//1
f 5//1 2//1 1//1
f 3//1 5//1 1//1
f 8//1 2//1 6//1
f 1//1 2//1 4//1
f 3//1 4//1 8//1
f 7//1 8//1 6//1
f 5//1 6//1 2//1
f 3//1 7//1 5//1
f 8//1 4//1 2//1
o g_main
v -800.000000 400.000000 0.000000
v -800.000000 400.000000 -200.000000
v -800.000000 -400.000000 0.000000
v -800.000000 -400.000000 -200.000000
v -800.000000 -400.000000 0.000000
v -800.000000 400.000000 0.000000
v 800.000000 -400.000000 0.000000
v 800.000000 400.000000 0.000000
v -800.000000 -300.000000 0.000000
v -800.000000 -200.000000 0.000000
v -800.000000 -100.000000 0.000000
v -800.000000 0.000000 0.000000
v -800.000000 100.000000 0.000000
v -800.000000 200.000000 0.000000
v -800.000000 300.000000 0.000000
v 800.000000 300.000000 0.000000
v 800.000000 200.000000 0.000000
v 800.000000 100.000000 0.000000
v 800.000000 0.000000 0.000000
v 800.000000 -100.000000 0.000000
v 800.000000 -200.000000 0.000000
v 800.000000 -300.000000 0.000000
v -800.000000 -400.000000 -200.000000
v -800.000000 -400.000000 0.000000
v 800.000000 -400.000000 -200.000000
v 800.000000 -400.000000 0.000000
v 800.000000 -400.000000 -200.000000
v 800.000000 -400.000000 0.000000
v 800.000000 400.000000 -200.000000
v 800.000000 400.000000 0.000000
v 800.000000 400.000000 -200.000000
v 800.000000 400.000000 0.000000
v -800.000000 400.000000 -200.000000
v -800.000000 400.000000 0.000000
vt 1.000000 1.000000
vt 0.000000 0.750000
vt 1.000000 0.750000
vt 2.000000 1.000000
vt 0.000000 0.750000
vt 2.000000 0.750000
vt 1.000000 1.000000
vt 0.000000 0.750000
vt 1.000000 0.750000
vt 0.000000 0.920898
vt 2.000000 0.795898
vt 2.000000 0.920898
vt -0.062500 0.920898
vt 1.937500 0.795898
vt 1.937500 0.920898
vt -0.250000 0.920898
vt 1.750000 0.795898
vt 1.750000 0.920898
vt -0.625000 0.920898
vt 1.375000 0.795898
vt 1.375000 0.920898
vt -0.187500 0.920898
vt 1.812500 0.795898
vt 1.812500 0.920898
vt -0.750000 0.920898
vt 1.250000 0.795898
vt 1.250000 0.920898
vt -0.187500 0.920898
vt 1.812500 0.795898
vt 1.812500 0.920898
vt -0.125000 0.920898
vt 1.875000 0.795898
vt 1.875000 0.920898
vt 2.000000 1.000000
vt 0.000000 0.750000
vt 2.000000 0.750000
vt 0.000000 1.000000
vt 0.000000 1.000000
vt 0.000000 1.000000
vt 0.000000 0.795898
vt -0.062500 0.795898
vt -0.250000 0.795898
vt -0.625000 0.795898
vt -0.187500 0.795898
vt -0.750000 0.795898
vt -0.187500 0.795898
vt -0.125000 0.795898
vt 0.000000 1.000000
vn -1.0000 0.0000 0.0000
vn 0.0000 1.0000 0.0000
vn 1.0000 0.0000 0.0000
vn 0.0000 0.0000 1.0000
vn 0.0000 -1.0000 0.0000
usemtl mtl_main
s off
f 11/1/2 41/2/2 12/3/2
f 9/4/3 39/5/3 10/6/3
f 38/7/4 35/8/4 37/9/4
f 17/10/5 15/11/5 30/12/5
f 14/13/5 24/14/5 16/15/5
f 23/16/5 25/17/5 24/18/5
f 22/19/5 26/20/5 25/21/5
f 21/22/5 27/23/5 26/24/5
f 20/25/5 28/26/5 27/27/5
f 19/28/5 29/29/5 28/30/5
f 18/31/5 30/32/5 29/33/5
f 34/34/6 31/35/6 33/36/6
f 11/1/2 42/37/2 41/2/2
f 9/4/3 40/38/3 39/5/3
f 38/7/4 36/39/4 35/8/4
f 17/10/5 13/40/5 15/11/5
f 14/13/5 23/41/5 24/14/5
f 23/16/5 22/42/5 25/17/5
f 22/19/5 21/43/5 26/20/5
f 21/22/5 20/44/5 27/23/5
f 20/25/5 19/45/5 28/26/5
f 19/28/5 18/46/5 29/29/5
f 18/31/5 17/47/5 30/32/5
f 34/34/6 32/48/6 31/35/6
