# Blender v2.79 (sub 0) OBJ File: 'wz_vegetation_bush_medium.blend'
# www.blender.org
mtllib wz_vegetation_bush_medium.mtl
o g_bush_lod1
v 5.472031 -62.386215 1.568547
v -17.699467 -102.477142 182.394440
v 33.079559 60.244102 2.161703
v -21.706028 109.657356 189.100220
v -63.727604 -97.094742 50.928295
v -64.719612 -104.271935 172.236832
v -35.667137 121.154274 162.023209
v -22.780769 119.375160 55.207199
v -64.194580 -13.387971 8.976373
v -80.608765 -55.064648 184.685684
v -59.743900 21.750490 4.078511
v -61.589695 83.021873 184.243423
v 57.514698 32.798637 -0.024184
v 99.773331 13.030145 186.820633
v 49.957798 -29.803585 -4.073275
v 86.955208 -44.444275 177.258377
v -84.168663 -92.478889 50.675030
v -81.946938 -84.885529 167.963272
v -75.128693 102.274979 166.789627
v -73.003433 95.459427 57.339657
v 119.306099 -21.247915 167.945770
v 93.949730 -38.495667 50.540703
v 114.632759 13.725786 168.282501
v 122.609940 1.841375 51.592201
vt 0.081762 0.958284
vt 0.381326 0.991241
vt 0.399283 0.958284
vt 0.161143 0.739765
vt 0.399283 0.812605
vt 0.319903 0.739765
vt 0.081762 0.958284
vt 0.399283 0.812605
vt 0.399283 0.958284
vt 0.099720 0.991241
vt 0.399283 0.958284
vt 0.081762 0.958284
vt 0.381326 0.991241
vt 0.161143 0.739765
vt 0.319903 0.739765
vt 0.081762 0.812605
vt 0.161143 0.739765
vt 0.399283 0.812605
vt 0.319903 0.739765
vt 0.081762 0.812605
vt 0.099720 0.991241
vt 0.081762 0.812605
vt 0.381326 0.991241
vt 0.099720 0.991241
vn -0.8036 0.0694 0.5911
vn -0.8124 0.1183 0.5710
vn -0.9712 0.1602 0.1764
vn -0.6148 0.1338 -0.7772
vn -0.8928 0.1795 -0.4131
vn -0.6005 0.1390 -0.7874
vn 0.3665 -0.8285 0.4233
vn 0.3929 -0.8804 -0.2655
vn 0.4397 -0.8771 0.1930
vn 0.4631 0.7233 0.5123
vn 0.5529 0.7042 0.4453
vn 0.5315 0.8379 0.1240
vn 0.4151 -0.8384 0.3530
vn 0.2289 -0.5382 -0.8111
vn 0.2132 -0.6956 -0.6861
vn 0.5422 0.7754 -0.3235
vn 0.4413 0.6437 -0.6251
vn 0.5419 0.7820 -0.3079
vn 0.4067 0.8946 -0.1852
vn -0.9219 0.1528 -0.3559
vn -0.2098 -0.0348 0.9771
vn 0.3916 -0.8553 -0.3392
vn 0.1735 0.1488 0.9735
vn 0.1739 -0.4876 0.8556
usemtl mtl_bush_billboard
s 1
f 6/1/1 4/2/2 7/3/3
f 1/4/4 8/5/5 3/6/6
f 18/7/7 24/8/8 23/9/9
f 12/10/10 21/11/11 19/12/12
f 14/13/13 18/7/7 23/9/9
f 24/8/8 9/14/14 13/15/15
f 21/11/11 20/16/16 19/12/12
f 11/17/17 22/18/18 15/19/19
f 5/20/20 7/3/3 8/5/5
f 6/1/1 2/21/21 4/2/2
f 1/4/4 5/20/20 8/5/5
f 18/7/7 17/22/22 24/8/8
f 12/10/10 16/23/23 21/11/11
f 14/13/13 10/24/24 18/7/7
f 24/8/8 17/22/22 9/14/14
f 21/11/11 22/18/18 20/16/16
f 11/17/17 20/16/16 22/18/18
f 5/20/20 6/1/1 7/3/3
o c_visblocker
v -95.000000 -95.000000 -10.000000
v -95.000000 -95.000000 180.000000
v -95.000000 95.000000 -10.000000
v -95.000000 95.000000 180.000000
v 95.000000 -95.000000 -10.000000
v 95.000000 -95.000000 180.000000
v 95.000000 95.000000 -10.000000
v 95.000000 95.000000 180.000000
vn -1.0000 0.0000 0.0000
vn 0.0000 1.0000 0.0000
vn 1.0000 0.0000 0.0000
vn 0.0000 -1.0000 0.0000
vn 0.0000 0.0000 -1.0000
vn 0.0000 0.0000 1.0000
usemtl None
s off
f 26//25 27//25 25//25
f 28//26 31//26 27//26
f 32//27 29//27 31//27
f 30//28 25//28 29//28
f 31//29 25//29 27//29
f 28//30 30//30 32//30
f 26//25 28//25 27//25
f 28//26 32//26 31//26
f 32//27 30//27 29//27
f 30//28 26//28 25//28
f 31//29 29//29 25//29
f 28//30 26//30 30//30
o co_culling
v 0.000000 0.000000 0.000000
v 0.000000 0.000000 0.000000
v 0.000000 0.000000 0.000000
v 0.000000 0.000000 0.000000
v 0.000000 0.000000 0.000000
v 0.000000 0.000000 0.000000
v 0.000000 0.000000 0.000000
v 0.000000 0.000000 0.000000
vn 0.0000 0.0000 1.0000
usemtl None
s off
f 33//31 36//31 35//31
f 35//31 40//31 39//31
f 39//31 38//31 37//31
f 37//31 34//31 33//31
f 35//31 37//31 33//31
f 40//31 34//31 38//31
f 33//31 34//31 36//31
f 35//31 36//31 40//31
f 39//31 40//31 38//31
f 37//31 38//31 34//31
f 35//31 39//31 37//31
f 40//31 36//31 34//31
o g_bush_lod0
v -23.926685 133.523926 99.548294
v -0.004432 0.254716 -4.319994
v -1.606662 92.332985 41.793407
v -1.910291 109.781441 180.155853
v 0.963202 -55.355961 180.571396
v -19.896177 -98.106613 152.732697
v 23.362360 -101.093987 92.069260
v -101.726387 -1.770102 97.508148
v -43.576321 -0.758236 187.524063
v -1.254447 -0.021829 -7.096689
v 74.235786 -8.684433 50.465923
v 103.816696 11.782696 108.796082
v 94.379616 -8.333898 137.193665
v 45.285233 0.788020 183.243774
v -5.043880 0.365697 34.334412
v -6.029739 -1.095729 61.952084
v -82.347382 -75.604042 106.904236
v -30.429304 -37.265331 31.690174
v 1.538688 8.572909 23.121094
v 47.157681 37.229286 120.895935
v 112.597908 108.910690 122.832893
v 68.714020 109.649826 59.645218
v 70.884857 132.391266 79.638634
v 0.091833 0.266658 -3.455995
v 33.289276 96.662018 33.434727
v 39.580078 114.928543 144.124680
v -19.957731 -57.951355 144.457108
v -12.626047 -110.099327 122.186172
v -59.192692 -98.440842 73.655411
v 106.495857 -36.675922 78.006523
v 45.619411 -15.710765 150.019257
v 1.313262 -0.452273 -5.677351
v -81.130333 16.261271 40.372738
v -105.270172 47.932911 87.036865
v -102.218605 23.523849 109.754944
v -47.408424 16.326941 146.595032
v 5.435544 -1.341070 27.467531
v 5.973375 -3.217094 49.561665
v 60.825802 -107.779457 85.523384
v 19.284443 -49.647789 25.352140
v 1.313785 9.552463 18.496878
v -36.909081 55.334534 96.716751
v -81.276718 153.198227 98.266312
v -34.821068 138.958664 47.716179
v 0.000010 0.000000 -36.058044
v -0.057464 3.302402 0.000001
v 2.831233 1.700966 0.000001
v 2.888697 -1.601436 0.000001
v 0.057464 -3.302402 0.000001
v -2.831233 -1.700966 0.000001
v -2.888697 1.601435 0.000001
v 0.000010 0.000000 15.413545
vt 0.561842 0.641984
vt 0.455081 0.334685
vt 1.000000 0.360654
vt 0.463737 0.545322
vt 0.944162 0.640541
vt 0.384388 0.040370
vt 0.381502 0.186085
vt 0.100172 0.125491
vt 0.903766 0.160116
vt 0.711286 0.942338
vt 0.640236 0.676300
vt 0.981935 0.794838
vt 0.440654 0.484727
vt 0.515675 0.704021
vt 0.000000 0.711583
vt 0.690590 0.000000
vt 0.452195 0.121163
vt 0.496993 0.842150
vt 0.145766 1.000000
vt 0.368518 0.983908
vt 0.251855 0.268320
vt 0.491149 0.810782
vt 0.561842 0.641984
vt 0.455081 0.334685
vt 1.000000 0.360654
vt 0.463737 0.545322
vt 0.944162 0.640541
vt 0.384388 0.040370
vt 0.381502 0.186085
vt 0.100172 0.125491
vt 0.903766 0.160116
vt 0.711286 0.942338
vt 0.640236 0.676300
vt 0.981935 0.794838
vt 0.440654 0.484727
vt 0.515675 0.704021
vt 0.000000 0.711583
vt 0.690590 0.000000
vt 0.452195 0.121163
vt 0.496993 0.842150
vt 0.145766 1.000000
vt 0.368518 0.983908
vt 0.251855 0.268320
vt 0.491149 0.810782
vt 0.252515 0.272450
vt 0.259012 0.337579
vt 0.257883 0.337715
vt 0.255625 0.337985
vt 0.254496 0.338120
vt 0.255625 0.337985
vt 0.257883 0.337715
vt 0.257743 0.353110
vn 0.9705 0.1909 0.1470
vn 0.6265 -0.6164 0.4771
vn 0.9657 0.0162 -0.2590
vn 0.7393 -0.6490 0.1795
vn 0.9538 0.1847 0.2369
vn 0.8451 -0.4688 -0.2569
vn 0.0456 -0.9496 0.3101
vn 0.9854 0.0896 -0.1447
vn 0.8290 -0.5592 0.0000
vn 0.6600 -0.5899 -0.4652
vn 0.0174 -0.9998 0.0000
vn -0.0586 -0.9956 -0.0729
vn 0.0851 -0.8262 -0.5570
vn -0.0599 -0.9894 0.1322
vn 0.8556 -0.4769 -0.2014
vn 0.7154 0.3571 -0.6006
vn 0.8866 -0.3047 0.3479
vn 0.8907 0.3830 -0.2449
vn 0.8290 -0.4589 -0.3197
vn 0.9212 0.1793 0.3452
vn 0.3230 0.8523 -0.4114
vn 0.9009 -0.3861 0.1983
vn 0.9613 0.2756 0.0000
vn 0.7400 0.3262 0.5882
vn 0.3256 0.9455 -0.0000
vn 0.2514 0.9626 0.1007
vn 0.2968 0.6702 0.6802
vn 0.2470 0.9519 -0.1815
vn -0.0000 0.0000 -1.0000
vn -0.0174 0.9982 0.0572
vn 0.8558 0.5141 0.0572
vn 0.8731 -0.4841 0.0572
vn 0.0174 -0.9982 0.0572
vn -0.8558 -0.5141 0.0572
vn -0.8731 0.4841 0.0572
vn 0.0000 0.0000 1.0000
usemtl mtl_bush
s off
f 45/25/32 47/26/32 41/27/32
f 46/28/33 47/26/33 45/25/33
f 44/29/34 45/25/34 41/27/34
f 58/30/35 56/31/35 57/32/35
f 43/33/36 41/27/36 47/26/36
f 62/34/37 60/35/37 59/36/37
f 51/37/38 52/38/38 48/39/38
f 42/40/39 43/33/39 47/26/39
f 58/30/40 55/41/40 56/31/40
f 62/34/41 61/42/41 60/35/41
f 49/43/42 48/39/42 54/44/42
f 50/45/43 51/37/43 48/39/43
f 52/38/44 53/46/44 48/39/44
f 54/44/45 48/39/45 53/46/45
f 67/47/46 69/48/46 63/49/46
f 68/50/47 69/48/47 67/47/47
f 66/51/48 67/47/48 63/49/48
f 80/52/49 78/53/49 79/54/49
f 65/55/50 63/49/50 69/48/50
f 84/56/51 82/57/51 81/58/51
f 73/59/52 74/60/52 70/61/52
f 64/62/53 65/55/53 69/48/53
f 80/52/54 77/63/54 78/53/54
f 84/56/55 83/64/55 82/57/55
f 71/65/56 70/61/56 76/66/56
f 72/67/57 73/59/57 70/61/57
f 74/60/58 75/68/58 70/61/58
f 76/66/59 70/61/59 75/68/59
s 1
f 85/69/60 86/70/61 87/71/62
f 85/69/60 87/71/62 88/72/63
f 85/69/60 88/72/63 89/73/64
f 85/69/60 89/73/64 90/74/65
f 85/69/60 90/74/65 91/75/66
f 85/69/60 91/75/66 86/70/61
f 88/72/63 87/71/62 92/76/67
f 91/75/66 90/74/65 92/76/67
f 87/71/62 86/70/61 92/76/67
f 89/73/64 88/72/63 92/76/67
f 86/70/61 91/75/66 92/76/67
f 90/74/65 89/73/64 92/76/67
