# Blender v2.79 (sub 0) OBJ File: 'wz_prop_heavy_wall_4m_b.blend'
# www.blender.org
mtllib wz_prop_heavy_wall_4m_b.mtl
o co_culling
v 0.000000 0.000000 0.000000
v 0.000000 0.000000 0.000000
v 0.000000 0.000000 0.000000
v 0.000000 0.000000 0.000000
v 0.000000 0.000000 0.000000
v 0.000000 0.000000 0.000000
v 0.000000 0.000000 0.000000
v 0.000000 0.000000 0.000000
vn 0.0000 0.0000 1.0000
usemtl None
s off
f 1//1 4//1 3//1
f 3//1 8//1 7//1
f 7//1 6//1 5//1
f 5//1 2//1 1//1
f 3//1 5//1 1//1
f 8//1 2//1 6//1
f 1//1 2//1 4//1
f 3//1 4//1 8//1
f 7//1 8//1 6//1
f 5//1 6//1 2//1
f 3//1 7//1 5//1
f 8//1 4//1 2//1
o g_wall
v -45.000000 -50.000000 -100.000000
v -50.000000 -45.000000 -100.000000
v -50.000000 94.975060 -100.000000
v -45.000000 100.000000 -100.000000
v 50.000000 -45.000000 -100.000000
v 45.000000 -50.000000 -100.000000
v 45.000000 100.000000 -100.000000
v 50.000000 94.975060 -100.000000
v 50.000000 44.975060 500.000000
v 45.000000 50.000000 500.000000
v 45.000000 100.000000 0.000000
v 50.000000 94.975060 0.000000
v 45.000000 -50.000000 500.000000
v 50.000000 -45.000000 500.000000
v 50.000000 -45.000000 0.000000
v 45.000000 -50.000000 0.000000
v -45.000000 50.000000 500.000000
v -50.000000 44.975060 500.000000
v -50.000000 94.975060 0.000000
v -45.000000 100.000000 0.000000
v -50.000000 -45.000000 500.000000
v -45.000000 -50.000000 500.000000
v -45.000000 -50.000000 0.000000
v -50.000000 -45.000000 0.000000
v -400.000000 -19.999998 100.000000
v -400.000000 -19.999998 450.000000
v -400.000000 20.000002 100.000000
v -400.000000 20.000002 450.000000
v 0.000000 -19.999998 100.000000
v 0.000000 -19.999998 450.000000
v 0.000000 20.000002 100.000000
v 0.000000 20.000002 450.000000
v -400.000000 -19.999998 100.000000
v 0.000000 -19.999998 100.000000
v -400.000000 -29.999998 80.000000
v 0.000000 -29.999998 80.000000
v -400.000000 -29.999998 -100.000000
v 0.000000 -29.999998 -100.000000
v -400.000000 30.000057 -100.000000
v 0.000000 29.999998 -100.000000
v -400.000000 30.000057 80.000000
v 0.000000 29.999998 80.000000
v -400.000000 20.000059 100.000000
v 0.000000 19.999998 100.000000
vt 0.991211 0.746094
vt 0.878906 0.124023
vt 0.991211 0.124023
vt 0.991211 0.745117
vt 0.878906 0.124023
vt 0.991211 0.124023
vt 0.870061 0.124023
vt 0.878906 0.000114
vt 0.000000 0.000000
vt 0.000000 0.000000
vt 0.000000 0.000000
vt 1.000000 0.510742
vt 0.878906 1.000000
vt 0.878906 0.510742
vt 0.882704 0.416099
vt 0.977539 0.321289
vt 0.982530 0.416099
vt 0.878906 0.745117
vt 0.870061 0.745117
vt 1.000000 0.746094
vt 1.000057 0.124023
vt 1.000057 0.745117
vt 0.878906 0.746094
vt 0.870117 0.124023
vt 1.000000 1.000000
vt 0.878906 0.510742
vt 1.000000 0.510742
vt 1.000000 0.412109
vt 1.000000 0.412109
vt 0.991211 0.000000
vt 0.878906 0.000000
vt 0.991211 0.000114
vt 1.000057 0.000114
vt 1.000000 0.000000
vt 1.000000 0.124023
vt 0.864258 1.000000
vt 0.000085 0.000085
vt 0.864258 0.000000
vt 0.864258 1.000000
vt 0.000085 0.000085
vt 0.864258 0.000000
vt 0.900000 0.000000
vt 1.000000 1.000000
vt 0.899999 1.000000
vt 0.000000 1.000000
vt 0.864258 0.951172
vt 0.864258 1.000000
vt 0.000000 0.952148
vt 0.864258 0.562500
vt 0.000000 0.952148
vt 0.864258 0.562500
vt 0.864258 0.951172
vt 0.000000 1.000000
vt 0.864258 1.000000
vt 0.870061 0.000114
vt 0.000000 0.000000
vt 0.000000 0.000000
vt 0.000000 0.000000
vt 0.000000 0.000000
vt 0.000000 0.000000
vt 1.000000 1.000000
vt 0.982530 0.326280
vt 0.977539 0.421115
vt 0.887695 0.421115
vt 0.882704 0.326280
vt 0.887695 0.321289
vt 0.870117 0.746094
vt 0.878906 1.000000
vt 0.878906 0.412109
vt 0.878906 0.412109
vt 0.870117 0.000000
vt 0.000085 0.999915
vt 0.000085 0.999915
vt 1.000000 0.000000
vt 0.000000 0.562500
vt 0.000000 0.562500
vn 0.0000 -1.0000 0.0000
vn 0.0000 0.9950 0.0995
vn 0.7089 0.7053 0.0000
vn 0.0000 0.0000 -1.0000
vn -1.0000 0.0000 0.0000
vn 0.0000 0.0000 1.0000
vn 0.7071 0.7036 0.0704
vn 0.7071 -0.7071 0.0000
vn -0.7071 0.7036 0.0704
vn -0.7071 -0.7071 0.0000
vn 1.0000 0.0000 0.0000
vn 0.0000 1.0000 0.0000
vn -0.7089 0.7053 0.0000
vn 0.0000 -0.8944 0.4472
vn 0.0000 0.8944 0.4472
usemtl mtl_fence
s off
f 21/1/2 31/2/2 24/3/2
f 25/4/3 19/5/3 28/6/3
f 20/7/4 15/8/4 19/5/4
f 13/9/5 14/10/5 10/11/5
f 32/12/6 26/13/6 27/14/6
f 26/15/7 21/16/7 17/17/7
f 20/7/8 18/18/8 17/19/8
f 24/3/9 22/20/9 21/1/9
f 25/4/10 27/21/10 26/22/10
f 30/23/11 32/24/11 31/2/11
f 17/25/12 23/26/12 20/27/12
f 27/14/6 10/28/6 32/12/6
f 23/26/12 16/29/12 20/27/12
f 31/2/2 14/30/2 24/3/2
f 32/24/11 9/31/11 31/2/11
f 19/5/13 12/32/13 28/6/13
f 28/6/14 11/33/14 27/21/14
f 24/3/9 13/34/9 23/35/9
f 36/36/13 39/37/13 35/38/13
f 38/39/2 33/40/2 37/41/2
f 36/42/7 38/43/7 40/44/7
f 41/45/15 44/46/15 42/47/15
f 43/48/2 46/49/2 44/46/2
f 50/50/13 47/51/13 49/52/13
f 52/53/16 49/52/16 51/54/16
f 21/1/2 30/23/2 31/2/2
f 25/4/3 18/18/3 19/5/3
f 20/7/4 16/55/4 15/8/4
f 10/11/5 11/56/5 16/57/5
f 12/58/5 15/59/5 16/57/5
f 16/57/5 13/9/5 10/11/5
f 14/10/5 9/60/5 10/11/5
f 11/56/5 12/58/5 16/57/5
f 32/12/6 29/61/6 26/13/6
f 22/62/7 17/17/7 21/16/7
f 18/63/7 25/64/7 26/15/7
f 26/15/7 29/65/7 30/66/7
f 30/66/7 21/16/7 26/15/7
f 17/17/7 18/63/7 26/15/7
f 20/7/8 19/5/8 18/18/8
f 24/3/9 23/35/9 22/20/9
f 25/4/10 28/6/10 27/21/10
f 30/23/11 29/67/11 32/24/11
f 17/25/12 22/68/12 23/26/12
f 27/14/6 11/69/6 10/28/6
f 23/26/12 13/70/12 16/29/12
f 31/2/2 9/31/2 14/30/2
f 32/24/11 10/71/11 9/31/11
f 19/5/13 15/8/13 12/32/13
f 28/6/14 12/32/14 11/33/14
f 24/3/9 14/30/9 13/34/9
f 36/36/13 40/72/13 39/37/13
f 38/39/2 34/73/2 33/40/2
f 36/42/7 34/74/7 38/43/7
f 41/45/15 43/48/15 44/46/15
f 43/48/2 45/75/2 46/49/2
f 50/50/13 48/76/13 47/51/13
f 52/53/16 50/50/16 49/52/16
