# Blender v2.79 (sub 0) OBJ File: 'wz_prop_compound_wall_4m_a.blend'
# www.blender.org
mtllib wz_prop_compound_wall_4m_a.mtl
o co_culling
v 0.000000 0.000000 0.000000
v 0.000000 0.000000 0.000000
v 0.000000 0.000000 0.000000
v 0.000000 0.000000 0.000000
v 0.000000 0.000000 0.000000
v 0.000000 0.000000 0.000000
v 0.000000 0.000000 0.000000
v 0.000000 0.000000 0.000000
vn 0.0000 0.0000 1.0000
usemtl None
s off
f 1//1 4//1 3//1
f 3//1 8//1 7//1
f 7//1 6//1 5//1
f 5//1 2//1 1//1
f 3//1 5//1 1//1
f 8//1 2//1 6//1
f 1//1 2//1 4//1
f 3//1 4//1 8//1
f 7//1 8//1 6//1
f 5//1 6//1 2//1
f 3//1 7//1 5//1
f 8//1 4//1 2//1
o g_wall
v -19.999998 -19.999998 -19.999998
v -19.999998 -19.999998 300.000000
v -19.999998 19.999998 -19.999998
v -19.999998 19.999998 300.000000
v 19.999998 -19.999998 -19.999998
v 19.999998 -19.999998 300.000000
v 19.999998 19.999998 -19.999998
v 19.999998 19.999998 300.000000
v 20.000000 -9.999999 -19.999998
v 20.000000 -9.999999 290.000000
v 20.000000 9.999999 -19.999998
v 20.000000 9.999999 290.000000
v 380.000000 -9.999999 -19.999998
v 380.000000 -9.999999 290.000000
v 380.000000 9.999999 -19.999998
v 380.000000 9.999999 290.000000
v 20.000000 -9.999999 290.000000
v 20.000000 9.999999 290.000000
v 380.000000 -9.999999 290.000000
v 380.000000 9.999999 290.000000
v -19.999998 19.999998 -19.999998
v -19.999998 -19.999998 -19.999998
v -19.999998 -19.999998 300.000000
v -19.999998 -19.999998 300.000000
v -19.999998 19.999998 300.000000
v -19.999998 19.999998 300.000000
v 19.999998 19.999998 -19.999998
v 19.999998 19.999998 300.000000
v 19.999998 19.999998 300.000000
v 19.999998 -19.999998 -19.999998
v 19.999998 -19.999998 300.000000
v 19.999998 -19.999998 300.000000
vt 1.000000 1.000000
vt 0.864258 0.000000
vt 1.000000 0.000000
vt 1.000000 1.000000
vt 0.864258 0.000000
vt 1.000000 0.000000
vt 1.000000 1.000000
vt 0.864258 0.000000
vt 1.000000 0.000000
vt 1.000000 1.000000
vt 0.864258 0.000000
vt 1.000000 0.000000
vt 0.864258 1.000000
vt 1.000000 0.864258
vt 1.000000 1.000000
vt 0.864258 1.000000
vt -0.000000 0.000000
vt 0.864258 0.000000
vt 0.864258 1.000000
vt 0.000085 0.000085
vt 0.864258 0.000000
vt 0.000000 0.362305
vt 0.864258 0.312500
vt 0.864258 0.362305
vt 0.864258 1.000000
vt 0.864258 1.000000
vt 0.864258 1.000000
vt 0.864258 1.000000
vt 0.864258 0.864258
vt 0.000000 1.000000
vt 0.000000 1.000000
vt 0.000000 0.312500
vn -1.0000 0.0000 0.0000
vn 0.0000 1.0000 0.0000
vn 1.0000 0.0000 0.0000
vn 0.0000 -1.0000 0.0000
vn 0.0000 0.0000 1.0000
usemtl mtl_fence
s off
f 31/1/2 29/2/2 30/3/2
f 34/4/3 35/5/3 11/6/3
f 37/7/4 38/8/4 15/9/4
f 40/10/5 9/11/5 13/12/5
f 12/13/6 14/14/6 16/15/6
f 20/16/3 23/17/3 19/18/3
f 22/19/5 17/20/5 21/21/5
f 26/22/6 27/23/6 28/24/6
f 31/1/2 33/25/2 29/2/2
f 34/4/3 36/26/3 35/5/3
f 37/7/4 39/27/4 38/8/4
f 40/10/5 32/28/5 9/11/5
f 12/13/6 10/29/6 14/14/6
f 20/16/3 24/30/3 23/17/3
f 22/19/5 18/31/5 17/20/5
f 26/22/6 25/32/6 27/23/6
